<svg xmlns="http://www.w3.org/2000/svg" viewBox="0 0 64 88" fill="none" aria-hidden="true">
  <!-- pediment -->
  <path
    d="M4 22 L32 4 L60 22 Z"
    fill="#2D5C4A"
    stroke="#1A1A1A"
    stroke-width="1.25"
    stroke-linejoin="round"
  />

  <!-- column entablature -->
  <rect
    x="8"
    y="22"
    width="48"
    height="18"
    fill="#F5F0E6"
    stroke="#1A1A1A"
    stroke-width="1.25"
  />
  <line x1="17" y1="22" x2="17" y2="40" stroke="#1A1A1A" stroke-width="1.25"/>
  <line x1="25.5" y1="22" x2="25.5" y2="40" stroke="#1A1A1A" stroke-width="1.25"/>
  <line x1="38.5" y1="22" x2="38.5" y2="40" stroke="#1A1A1A" stroke-width="1.25"/>
  <line x1="47" y1="22" x2="47" y2="40" stroke="#1A1A1A" stroke-width="1.25"/>

  <!-- stone band -->
  <rect
    x="6"
    y="40"
    width="52"
    height="4"
    fill="#5C5C5C"
    stroke="#1A1A1A"
    stroke-width="1.25"
  />

  <!-- kiln entrance base -->
  <path
    d="M6 44 H58 V78 H46 V74 H18 V78 H6 Z"
    fill="#D4A843"
    stroke="#1A1A1A"
    stroke-width="1.25"
    stroke-linejoin="round"
  />

  <!-- arch opening -->
  <path
    d="M18 78 V66 C18 56 32 50 32 50 C32 50 46 56 46 66 V78"
    fill="#F5F0E6"
    stroke="#1A1A1A"
    stroke-width="1.25"
    stroke-linejoin="round"
  />

  <!-- grate lines -->
  <line x1="22" y1="62" x2="42" y2="62" stroke="#1A1A1A" stroke-width="1"/>
  <line x1="22" y1="66" x2="42" y2="66" stroke="#1A1A1A" stroke-width="1"/>
  <line x1="22" y1="70" x2="42" y2="70" stroke="#1A1A1A" stroke-width="1"/>
</svg>
